%TF.GenerationSoftware,KiCad,Pcbnew,9.0.0*%
%TF.CreationDate,2025-06-13T13:21:56+01:00*%
%TF.ProjectId,KiCAD_uPicomac3_4,4b694341-445f-4755-9069-636f6d616333,rev?*%
%TF.SameCoordinates,Original*%
%TF.FileFunction,AssemblyDrawing,Bot*%
%FSLAX46Y46*%
G04 Gerber Fmt 4.6, Leading zero omitted, Abs format (unit mm)*
G04 Created by KiCad (PCBNEW 9.0.0) date 2025-06-13 13:21:56*
%MOMM*%
%LPD*%
G01*
G04 APERTURE LIST*
%ADD10C,0.150000*%
%ADD11C,0.100000*%
G04 APERTURE END LIST*
D10*
X135481009Y-49107871D02*
X135528628Y-49250728D01*
X135528628Y-49250728D02*
X135576247Y-49298347D01*
X135576247Y-49298347D02*
X135671485Y-49345966D01*
X135671485Y-49345966D02*
X135814342Y-49345966D01*
X135814342Y-49345966D02*
X135909580Y-49298347D01*
X135909580Y-49298347D02*
X135957200Y-49250728D01*
X135957200Y-49250728D02*
X136004819Y-49155490D01*
X136004819Y-49155490D02*
X136004819Y-48774538D01*
X136004819Y-48774538D02*
X135004819Y-48774538D01*
X135004819Y-48774538D02*
X135004819Y-49107871D01*
X135004819Y-49107871D02*
X135052438Y-49203109D01*
X135052438Y-49203109D02*
X135100057Y-49250728D01*
X135100057Y-49250728D02*
X135195295Y-49298347D01*
X135195295Y-49298347D02*
X135290533Y-49298347D01*
X135290533Y-49298347D02*
X135385771Y-49250728D01*
X135385771Y-49250728D02*
X135433390Y-49203109D01*
X135433390Y-49203109D02*
X135481009Y-49107871D01*
X135481009Y-49107871D02*
X135481009Y-48774538D01*
X136004819Y-50203109D02*
X135481009Y-50203109D01*
X135481009Y-50203109D02*
X135385771Y-50155490D01*
X135385771Y-50155490D02*
X135338152Y-50060252D01*
X135338152Y-50060252D02*
X135338152Y-49869776D01*
X135338152Y-49869776D02*
X135385771Y-49774538D01*
X135957200Y-50203109D02*
X136004819Y-50107871D01*
X136004819Y-50107871D02*
X136004819Y-49869776D01*
X136004819Y-49869776D02*
X135957200Y-49774538D01*
X135957200Y-49774538D02*
X135861961Y-49726919D01*
X135861961Y-49726919D02*
X135766723Y-49726919D01*
X135766723Y-49726919D02*
X135671485Y-49774538D01*
X135671485Y-49774538D02*
X135623866Y-49869776D01*
X135623866Y-49869776D02*
X135623866Y-50107871D01*
X135623866Y-50107871D02*
X135576247Y-50203109D01*
X135338152Y-50536443D02*
X135338152Y-50917395D01*
X135004819Y-50679300D02*
X135861961Y-50679300D01*
X135861961Y-50679300D02*
X135957200Y-50726919D01*
X135957200Y-50726919D02*
X136004819Y-50822157D01*
X136004819Y-50822157D02*
X136004819Y-50917395D01*
X135338152Y-51107872D02*
X135338152Y-51488824D01*
X135004819Y-51250729D02*
X135861961Y-51250729D01*
X135861961Y-51250729D02*
X135957200Y-51298348D01*
X135957200Y-51298348D02*
X136004819Y-51393586D01*
X136004819Y-51393586D02*
X136004819Y-51488824D01*
X135957200Y-52203110D02*
X136004819Y-52107872D01*
X136004819Y-52107872D02*
X136004819Y-51917396D01*
X136004819Y-51917396D02*
X135957200Y-51822158D01*
X135957200Y-51822158D02*
X135861961Y-51774539D01*
X135861961Y-51774539D02*
X135481009Y-51774539D01*
X135481009Y-51774539D02*
X135385771Y-51822158D01*
X135385771Y-51822158D02*
X135338152Y-51917396D01*
X135338152Y-51917396D02*
X135338152Y-52107872D01*
X135338152Y-52107872D02*
X135385771Y-52203110D01*
X135385771Y-52203110D02*
X135481009Y-52250729D01*
X135481009Y-52250729D02*
X135576247Y-52250729D01*
X135576247Y-52250729D02*
X135671485Y-51774539D01*
X136004819Y-52679301D02*
X135338152Y-52679301D01*
X135528628Y-52679301D02*
X135433390Y-52726920D01*
X135433390Y-52726920D02*
X135385771Y-52774539D01*
X135385771Y-52774539D02*
X135338152Y-52869777D01*
X135338152Y-52869777D02*
X135338152Y-52965015D01*
X135338152Y-53203111D02*
X136004819Y-53441206D01*
X135338152Y-53679301D02*
X136004819Y-53441206D01*
X136004819Y-53441206D02*
X136242914Y-53345968D01*
X136242914Y-53345968D02*
X136290533Y-53298349D01*
X136290533Y-53298349D02*
X136338152Y-53203111D01*
X132283333Y-50634120D02*
X132283333Y-51348405D01*
X132283333Y-51348405D02*
X132330952Y-51491262D01*
X132330952Y-51491262D02*
X132426190Y-51586501D01*
X132426190Y-51586501D02*
X132569047Y-51634120D01*
X132569047Y-51634120D02*
X132664285Y-51634120D01*
X131759523Y-51634120D02*
X131569047Y-51634120D01*
X131569047Y-51634120D02*
X131473809Y-51586501D01*
X131473809Y-51586501D02*
X131426190Y-51538881D01*
X131426190Y-51538881D02*
X131330952Y-51396024D01*
X131330952Y-51396024D02*
X131283333Y-51205548D01*
X131283333Y-51205548D02*
X131283333Y-50824596D01*
X131283333Y-50824596D02*
X131330952Y-50729358D01*
X131330952Y-50729358D02*
X131378571Y-50681739D01*
X131378571Y-50681739D02*
X131473809Y-50634120D01*
X131473809Y-50634120D02*
X131664285Y-50634120D01*
X131664285Y-50634120D02*
X131759523Y-50681739D01*
X131759523Y-50681739D02*
X131807142Y-50729358D01*
X131807142Y-50729358D02*
X131854761Y-50824596D01*
X131854761Y-50824596D02*
X131854761Y-51062691D01*
X131854761Y-51062691D02*
X131807142Y-51157929D01*
X131807142Y-51157929D02*
X131759523Y-51205548D01*
X131759523Y-51205548D02*
X131664285Y-51253167D01*
X131664285Y-51253167D02*
X131473809Y-51253167D01*
X131473809Y-51253167D02*
X131378571Y-51205548D01*
X131378571Y-51205548D02*
X131330952Y-51157929D01*
X131330952Y-51157929D02*
X131283333Y-51062691D01*
X106124068Y-78119062D02*
X106124068Y-78833347D01*
X106124068Y-78833347D02*
X106171687Y-78976204D01*
X106171687Y-78976204D02*
X106266925Y-79071443D01*
X106266925Y-79071443D02*
X106409782Y-79119062D01*
X106409782Y-79119062D02*
X106505020Y-79119062D01*
X105743115Y-78119062D02*
X105076449Y-78119062D01*
X105076449Y-78119062D02*
X105505020Y-79119062D01*
D11*
%TO.C,J9*%
X130045000Y-49909301D02*
X129410000Y-50544301D01*
X134490000Y-49909301D02*
X130045000Y-49909301D01*
X129410000Y-50544301D02*
X129410000Y-52449301D01*
X129410000Y-52449301D02*
X134490000Y-52449301D01*
X134490000Y-52449301D02*
X134490000Y-49909301D01*
%TO.C,J7*%
X104020735Y-77394243D02*
X104020735Y-79299243D01*
X104020735Y-79299243D02*
X104655735Y-79934243D01*
X104655735Y-79934243D02*
X109100735Y-79934243D01*
X109100735Y-77394243D02*
X104020735Y-77394243D01*
X109100735Y-79934243D02*
X109100735Y-77394243D01*
%TD*%
M02*
